<svg xmlns="http://www.w3.org/2000/svg">
    <defs>
        <symbol id="link" viewBox="0 0 22 22" fill="none">
            <path d="M8.99996 12C9.42941 12.5742 9.97731 13.0492 10.6065 13.393C11.2357 13.7367 11.9315 13.9411 12.6466 13.9924C13.3617 14.0436 14.0795 13.9404 14.7513 13.6898C15.4231 13.4392 16.0331 13.0471 16.54 12.54L19.54 9.54003C20.4507 8.59702 20.9547 7.334 20.9433 6.02302C20.9319 4.71204 20.4061 3.45797 19.479 2.53093C18.552 1.60389 17.2979 1.07805 15.987 1.06666C14.676 1.05526 13.413 1.55924 12.47 2.47003L10.75 4.18003M13 10C12.5705 9.4259 12.0226 8.95084 11.3934 8.60709C10.7642 8.26333 10.0684 8.05891 9.3533 8.00769C8.63816 7.95648 7.92037 8.05966 7.24861 8.31025C6.57685 8.56083 5.96684 8.95296 5.45996 9.46003L2.45996 12.46C1.54917 13.403 1.04519 14.666 1.05659 15.977C1.06798 17.288 1.59382 18.5421 2.52086 19.4691C3.4479 20.3962 4.70197 20.922 6.01295 20.9334C7.32393 20.9448 8.58694 20.4408 9.52995 19.53L11.24 17.82"
                  stroke="currentColor" stroke-width="2" stroke-linecap="round" stroke-linejoin="round"/>
        </symbol>
        <symbol id="download" viewBox="0 0 20 20" fill="none">
            <path d="M19 13V14.2C19 15.8802 19 16.7202 18.673 17.362C18.3854 17.9265 17.9265 18.3854 17.362 18.673C16.7202 19 15.8802 19 14.2 19H5.8C4.11984 19 3.27976 19 2.63803 18.673C2.07354 18.3854 1.6146 17.9265 1.32698 17.362C1 16.7202 1 15.8802 1 14.2V13M15 8L10 13M10 13L5 8M10 13V1"
                  stroke="currentColor" stroke-width="2" stroke-linecap="round" stroke-linejoin="round"/>
        </symbol>
        <symbol id="file" viewBox="0 0 18 22" fill="none">
            <path d="M11 1.26953V5.40007C11 5.96012 11 6.24015 11.109 6.45406C11.2049 6.64222 11.3578 6.7952 11.546 6.89108C11.7599 7.00007 12.0399 7.00007 12.6 7.00007H16.7305M11 16H5M13 12H5M17 8.98822V16.2C17 17.8802 17 18.7202 16.673 19.362C16.3854 19.9265 15.9265 20.3854 15.362 20.673C14.7202 21 13.8802 21 12.2 21H5.8C4.11984 21 3.27976 21 2.63803 20.673C2.07354 20.3854 1.6146 19.9265 1.32698 19.362C1 18.7202 1 17.8802 1 16.2V5.8C1 4.11984 1 3.27976 1.32698 2.63803C1.6146 2.07354 2.07354 1.6146 2.63803 1.32698C3.27976 1 4.11984 1 5.8 1H9.01178C9.74555 1 10.1124 1 10.4577 1.08289C10.7638 1.15638 11.0564 1.27759 11.3249 1.44208C11.6276 1.6276 11.887 1.88703 12.4059 2.40589L15.5941 5.59411C16.113 6.11297 16.3724 6.3724 16.5579 6.67515C16.7224 6.94356 16.8436 7.2362 16.9171 7.5423C17 7.88757 17 8.25445 17 8.98822Z"
                  stroke="currentColor" stroke-width="2" stroke-linecap="round" stroke-linejoin="round"/>
        </symbol>
        <symbol id="download-cloud" viewBox="0 0 22 20" fill="none">
            <path d="M3 14.2422C1.79401 13.435 1 12.0602 1 10.5C1 8.15643 2.79151 6.23129 5.07974 6.01937C5.54781 3.17213 8.02024 1 11 1C13.9798 1 16.4522 3.17213 16.9203 6.01937C19.2085 6.23129 21 8.15643 21 10.5C21 12.0602 20.206 13.435 19 14.2422M7 15L11 19M11 19L15 15M11 19V10"
                  stroke="currentColor" stroke-width="2" stroke-linecap="round" stroke-linejoin="round"/>
        </symbol>
        <symbol id="upload-cloud" viewBox="0 0 22 20" fill="none">
            <path d="M3 14.2422C1.79401 13.435 1 12.0602 1 10.5C1 8.15643 2.79151 6.23129 5.07974 6.01937C5.54781 3.17213 8.02024 1 11 1C13.9798 1 16.4522 3.17213 16.9203 6.01937C19.2085 6.23129 21 8.15643 21 10.5C21 12.0602 20.206 13.435 19 14.2422M7 14L11 10M11 10L15 14M11 10V19"
                  stroke="currentColor" stroke-width="2" stroke-linecap="round" stroke-linejoin="round"/>
        </symbol>
        <symbol id="save" viewBox="0 0 20 20" fill="none">
            <path d="M5 1V4.4C5 4.96005 5 5.24008 5.10899 5.45399C5.20487 5.64215 5.35785 5.79513 5.54601 5.89101C5.75992 6 6.03995 6 6.6 6H13.4C13.9601 6 14.2401 6 14.454 5.89101C14.6422 5.79513 14.7951 5.64215 14.891 5.45399C15 5.24008 15 4.96005 15 4.4V2M15 19V12.6C15 12.0399 15 11.7599 14.891 11.546C14.7951 11.3578 14.6422 11.2049 14.454 11.109C14.2401 11 13.9601 11 13.4 11H6.6C6.03995 11 5.75992 11 5.54601 11.109C5.35785 11.2049 5.20487 11.3578 5.10899 11.546C5 11.7599 5 12.0399 5 12.6V19M19 7.32548V14.2C19 15.8802 19 16.7202 18.673 17.362C18.3854 17.9265 17.9265 18.3854 17.362 18.673C16.7202 19 15.8802 19 14.2 19H5.8C4.11984 19 3.27976 19 2.63803 18.673C2.07354 18.3854 1.6146 17.9265 1.32698 17.362C1 16.7202 1 15.8802 1 14.2V5.8C1 4.11984 1 3.27976 1.32698 2.63803C1.6146 2.07354 2.07354 1.6146 2.63803 1.32698C3.27976 1 4.11984 1 5.8 1H12.6745C13.1637 1 13.4083 1 13.6385 1.05526C13.8425 1.10425 14.0376 1.18506 14.2166 1.29472C14.4184 1.4184 14.5914 1.59135 14.9373 1.93726L18.0627 5.06274C18.4086 5.40865 18.5816 5.5816 18.7053 5.78343C18.8149 5.96237 18.8957 6.15746 18.9447 6.36154C19 6.59171 19 6.8363 19 7.32548Z"
                  stroke="currentColor" stroke-width="2" stroke-linecap="round" stroke-linejoin="round"/>
        </symbol>
        <symbol id="hash" viewBox="0 0 18 20" fill="none">
            <path d="M1 6H17M1 14H17M5 1V19M13 1V19" stroke="currentColor" stroke-width="2" stroke-linecap="round"
                  stroke-linejoin="round"/>
        </symbol>
        <symbol id="check-circle" viewBox="0 0 22 22" fill="none">
            <path d="M6.5 11L9.5 14L15.5 8M21 11C21 16.5228 16.5228 21 11 21C5.47715 21 1 16.5228 1 11C1 5.47715 5.47715 1 11 1C16.5228 1 21 5.47715 21 11Z"
                  stroke="currentColor" stroke-width="2" stroke-linecap="round" stroke-linejoin="round"/>
        </symbol>
        <symbol id="alert-circle" viewBox="0 0 22 22" fill="none">
            <path d="M11 7V11M11 15H11.01M21 11C21 16.5228 16.5228 21 11 21C5.47715 21 1 16.5228 1 11C1 5.47715 5.47715 1 11 1C16.5228 1 21 5.47715 21 11Z"
                  stroke="currentColor" stroke-width="2" stroke-linecap="round" stroke-linejoin="round"/>
        </symbol>

    </defs>
</svg>